<?xml version="1.0" encoding="UTF-8"?>
<svg id="Layer_1" data-name="Layer 1" xmlns="http://www.w3.org/2000/svg" viewBox="0 0 40 40">
  <defs>
    <style>
      .cls-1 {
        fill: #414042;
      }
    </style>
  </defs>
  <path class="cls-1" d="M18.37,28.76s-.03,0-.05,0l-.97-.1c-.27-.03-.47-.27-.45-.55,.03-.28,.28-.48,.55-.45l.47,.05,.14-1.34c.01-.13,.08-.25,.18-.34,.1-.08,.24-.12,.37-.11l.86,.09,.12-1.24c.01-.13,.08-.25,.18-.34,.1-.08,.24-.12,.37-.11l.89,.09,.14-1.34c.03-.27,.27-.48,.55-.45l.93,.09,.15-1.44c.03-.28,.28-.48,.55-.45l.82,.08,.14-1.39c.03-.27,.27-.46,.55-.45l.92,.09,.14-1.36c.03-.28,.29-.48,.55-.45l.85,.08,.15-1.45c.03-.28,.29-.48,.55-.45l.86,.09,.14-1.35c.03-.28,.29-.48,.55-.45l.9,.09,.12-1.25c.03-.27,.28-.48,.55-.45l.73,.07,.13-1.27c.01-.13,.08-.25,.18-.34,.1-.08,.24-.12,.37-.11l.88,.09,.1-1-2.69-3.29c-.07-.08-.17-.14-.28-.15-.11,0-.22,.02-.3,.09L13.02,20.36c-.21,.17-.53,.14-.7-.07-.17-.21-.14-.53,.07-.7L29.58,5.54c.29-.24,.65-.35,1.03-.31,.37,.04,.71,.22,.95,.51l2.82,3.45c.08,.1,.12,.23,.11,.37l-.17,1.7c-.01,.13-.08,.25-.18,.34-.1,.08-.24,.12-.37,.11l-.88-.09-.13,1.27c-.03,.27-.28,.47-.55,.45l-.73-.07-.12,1.25c-.01,.13-.08,.25-.18,.34s-.23,.13-.37,.11l-.9-.09-.14,1.35c-.03,.28-.29,.47-.55,.45l-.86-.09-.15,1.45c-.03,.28-.29,.48-.55,.45l-.85-.08-.14,1.36c-.03,.27-.28,.46-.55,.45l-.92-.09-.14,1.4c-.03,.27-.28,.48-.55,.45l-.82-.08-.15,1.44c-.03,.27-.28,.48-.55,.45l-.93-.09-.14,1.34c-.03,.28-.29,.47-.55,.45l-.89-.09-.12,1.24c-.01,.13-.08,.25-.18,.34s-.23,.13-.37,.11l-.86-.09-.14,1.34c-.01,.13-.08,.25-.18,.34-.09,.07-.2,.11-.32,.11Z"/>
  <path class="cls-1" d="M13.15,30.97c-.05,0-.1,0-.15,0-.39-.04-.75-.23-1-.54l-2.83-3.46c-.52-.63-.42-1.57,.21-2.09,.31-.25,.7-.36,1.09-.33,.39,.04,.75,.23,1,.54l2.83,3.46c.52,.63,.42,1.57-.21,2.09h0c-.27,.22-.59,.33-.94,.33Zm.62-.72h0Zm-3.45-4.71c-.11,0-.22,.04-.3,.11-.21,.17-.24,.47-.07,.68l2.83,3.47c.08,.1,.2,.16,.33,.17,.13,.02,.25-.03,.35-.11h0c.21-.17,.24-.47,.07-.68l-2.83-3.47c-.08-.1-.2-.16-.33-.17-.02,0-.03,0-.05,0Z"/>
  <path class="cls-1" d="M12.41,34.5c-.2,0-.4-.05-.58-.15-.42-.24-.66-.7-.59-1.19l.03-.26s0-.1-.04-.14l-4.5-5.51s-.08-.06-.13-.07l-.27-.02c-.49-.04-.89-.36-1.04-.82s0-.96,.38-1.27l7.18-5.86c.24-.2,.55-.29,.87-.26,.31,.03,.6,.18,.8,.43h0l1.29,1.58c.21,.25,.3,.58,.26,.9l-.39,3.02s0,.1,.04,.14l1.93,2.36c.21,.25,.3,.58,.26,.9l-.24,1.88c-.04,.3-.19,.57-.42,.76l-4.06,3.32c-.22,.18-.48,.27-.75,.27Zm1.18-14.55s-.08,.01-.11,.04l-7.18,5.86c-.08,.07-.07,.15-.06,.19,.01,.04,.05,.12,.16,.13l.27,.02c.32,.02,.63,.18,.83,.43l4.5,5.51c.21,.25,.3,.58,.26,.9l-.03,.26c-.01,.11,.05,.16,.09,.18s.12,.05,.2-.02l4.06-3.32s.06-.07,.06-.12l.24-1.88s0-.1-.04-.14l-1.93-2.36c-.21-.25-.3-.58-.26-.9l.39-3.02s0-.1-.04-.14l-1.29-1.58s-.09-.07-.14-.07Z"/>
  <path class="cls-1" d="M30.14,8.75c-.14,0-.29-.06-.39-.18-.17-.21-.14-.53,.07-.7s.56-.17,.74,.04,.18,.5-.04,.68l-.07,.06c-.09,.08-.21,.11-.32,.11Z"/>
</svg>