<?xml version="1.0" encoding="UTF-8"?>
<svg id="Layer_1" data-name="Layer 1" xmlns="http://www.w3.org/2000/svg" viewBox="0 0 40 40">
  <defs>
    <style>
      .cls-1 {
        fill: #414042;
      }
    </style>
  </defs>
  <path class="cls-1" d="M16.61,5.94c.89-.36,1.86-.26,2.79-.18,.28,.01,.47,.29,.46,.55,.03,.53,0,1.07,.02,1.6,1.25-.09,2.4,.42,3.58,.75,.36,.11,.75,.13,1.08,.32,.31,.26,.11,.76-.25,.85-1.45,.45-2.85,1.3-4.43,1.11,0,.23,0,.47,0,.71,.82,.02,1.65-.02,2.47,.02,.46,.05,.6,.58,.67,.96,.08,.64-.02,1.4-.49,1.88-.84,.27-1.75,0-2.61,.13-.01,.05-.03,.15-.04,.2,1.73,.2,3.48-.08,5.21,.06,2.07,1.12,3.51,3.27,3.86,5.58,.34,2.02-.17,4.14-1.26,5.85-.21,.27-.48,.71-.89,.55-2.18-1-4.67-.55-6.92-.05,.02,.97,0,1.94,.04,2.9,.82-.17,1.49-.74,1.91-1.45,.21-.27,.33-.73,.73-.75,1.96-.29,3.92-.5,5.88-.8,.65-.07,1.3-.22,1.96-.22,.32,.15,.52,.54,.3,.86-1.01,2.12-1.83,4.42-3.53,6.11-.44,.42-.88,.84-1.37,1.21-.26,.09-.54,.08-.81,.08-4.42,0-8.83,0-13.25,.01-.3,0-.68,.04-.81-.29-.55-.89-1.49-1.42-2.11-2.24-.71-1.02-.66-2.32-.8-3.51-.02-.34-.14-.89,.31-1,.86-.07,1.73-.02,2.6,0-.28-.52,.08-.97,.35-1.39-.72,.11-1.41,.37-2.14,.46-.25-.1-.39-.37-.4-.63,.18-.36,.47-.65,.67-1.01,.75-1.43,.83-3.24,.02-4.66-.2-.38-.55-.67-.78-1.03-.06-.25,.07-.66,.4-.62,.85-.02,1.69,.02,2.54,0-.35-.48-.78-.89-1.19-1.32-.21-.16-.05-.45,.07-.62,.21-.1,.45-.06,.67-.07,1.47,.02,2.95,0,4.42,.01-.44-.49-.97-.9-1.47-1.33-.25-.17-.1-.63,.18-.66,1.54-.08,3.09,.04,4.62-.04,.04-.05,.13-.15,.17-.2-.81-.08-1.65,.09-2.45-.13-.32-.19-.09-.56-.05-.83,.2-.62-.29-1.12-.52-1.64-.11-.21,.14-.5,.36-.48,.83-.01,1.66,0,2.49,.04,0-.85-.01-1.7-.02-2.55-.82,.07-1.68,.11-2.46-.23-.89-.37-1.82-.66-2.73-.98-.5-.11-.34-.9,.12-.94,.97-.24,1.91-.58,2.84-.95m.6,.89c-.53,.17-1.03,.43-1.56,.6,.44,.16,.87,.36,1.32,.52,.6,.22,1.25,.13,1.88,.14,.01-.46,.01-.93,0-1.39-.55,0-1.11-.04-1.64,.14m2.67,2.01c0,.39-.01,.78-.02,1.17,.89,.06,1.73-.26,2.54-.6-.8-.33-1.65-.53-2.52-.57m-2.31,3.77c.05,.32,.09,.64,.13,.96,1.4,0,2.79-.01,4.19,0-.01-.27,.32-.85-.1-.88-1.4-.04-2.81,.02-4.21-.08m-1.51,3.31c1.02,1.11,1.62,2.55,1.94,4.01,.47,2.34-.08,4.79-1.17,6.88,.95-.37,1.92-.73,2.92-.97,2.28-.56,4.77-.86,7.03-.04,1.1-1.69,1.54-3.84,1.02-5.8-.42-1.69-1.55-3.17-3.03-4.07-.29-.08-.59-.04-.88-.05-2.61,0-5.22,.03-7.83,.04m-3.94,1.96c.67,1,1.14,2.13,1.29,3.33,.24,1.71-.14,3.44-.81,5.02,1.2-.37,2.43-.65,3.68-.76,1.1-2.36,1.21-5.24-.09-7.55-1.36-.03-2.71-.05-4.07-.04m-1.84,2.03c.98,1.65,.94,3.77,.15,5.48,.48-.07,.96-.14,1.45-.21,.69-1.67,.79-3.58,.17-5.29-.59,0-1.17,.02-1.76,.02m2.04,7.49c-.18,.03-.26,.22-.38,.34,.7,.12,1.45-.12,2.11,.18,.45,.54,.58,1.32,1.12,1.8,1.23,.18,2.49,.09,3.73,.11,0-.9,0-1.8-.03-2.69-1.22,.42-2.4,.94-3.59,1.44-.16-.14-.33-.26-.44-.45,.16-.59,.62-1.04,.9-1.57-1.17,.16-2.3,.5-3.42,.84m10.54,1.12c-.45,.71-.96,1.42-1.7,1.84-.79,.51-1.78,.47-2.68,.51-1.2-.02-2.42,.06-3.6-.17-.75-.36-1.11-1.2-1.5-1.89-1.45-.02-2.9-.04-4.35-.03,.12,1.06,.05,2.31,.87,3.12,.61,.58,1.24,1.14,1.71,1.84,4.59-.04,9.17-.03,13.76-.05,2.01-1.49,3.1-3.81,4.04-6.06-2.18,.33-4.36,.59-6.55,.89M5.74,11.5c.19-.16,.47-.07,.69-.1,2.16,.02,4.32-.01,6.48,.01,.34-.02,.62,.3,.53,.64-.06,.39-.52,.41-.82,.41-2.2-.02-4.41,0-6.61-.03-.47,.01-.65-.67-.26-.92M.78,14.39c.48-.22,1.57-.29,1.51,.5-.12,.59-.85,.53-1.3,.44-.44-.06-.55-.69-.21-.94m2.47,.64c-.15-.29,.11-.54,.26-.76,1.73,0,3.47,0,5.2,0,.44-.07,.85,.52,.52,.87-.15,.23-.45,.19-.69,.21-1.51,0-3.02,0-4.53,0-.29,.01-.64-.03-.76-.33m29.73,10.18c1.54-.06,3.08,0,4.62-.03,.33-.04,.59,.24,.64,.55-.08,.29-.33,.53-.64,.49-1.51,0-3.02,.02-4.53-.01-.54-.01-.58-.88-.09-1m-.9,2.99c1.13-.05,2.26,0,3.39-.02,.57-.05,.71,.88,.17,1.02-1.11,.05-2.23,0-3.34,0-.53,.03-.72-.8-.22-1"/>
</svg>