<?xml version="1.0" encoding="UTF-8"?>
<svg id="Layer_1" data-name="Layer 1" xmlns="http://www.w3.org/2000/svg" viewBox="0 0 40 40">
  <defs>
    <style>
      .cls-1 {
        fill: #414042;
      }
    </style>
  </defs>
  <path class="cls-1" d="M11,28.5c-3.03,0-5.5-2.47-5.5-5.5v-4c0-3.03,2.47-5.5,5.5-5.5s5.5,2.47,5.5,5.5v4c0,3.03-2.47,5.5-5.5,5.5Zm0-14c-2.48,0-4.5,2.02-4.5,4.5v4c0,2.48,2.02,4.5,4.5,4.5s4.5-2.02,4.5-4.5v-4c0-2.48-2.02-4.5-4.5-4.5Z"/>
  <path class="cls-1" d="M8,19.5c-.28,0-.5-.22-.5-.5,0-1.93,1.57-3.5,3.5-3.5,.28,0,.5,.22,.5,.5s-.22,.5-.5,.5c-1.38,0-2.5,1.12-2.5,2.5,0,.28-.22,.5-.5,.5Z"/>
  <path class="cls-1" d="M11,26.5c-1.93,0-3.5-1.57-3.5-3.5,0-.28,.22-.5,.5-.5s.5,.22,.5,.5c0,1.38,1.12,2.5,2.5,2.5s2.5-1.12,2.5-2.5v-4c0-.28,.22-.5,.5-.5s.5,.22,.5,.5v4c0,1.93-1.57,3.5-3.5,3.5Z"/>
  <path class="cls-1" d="M11,24.5c-.83,0-1.5-.67-1.5-1.5v-4c0-.83,.67-1.5,1.5-1.5s1.5,.67,1.5,1.5v4c0,.83-.67,1.5-1.5,1.5Zm0-6c-.28,0-.5,.22-.5,.5v4c0,.28,.22,.5,.5,.5s.5-.22,.5-.5v-4c0-.28-.22-.5-.5-.5Z"/>
  <path class="cls-1" d="M29,28.5H11c-.28,0-.5-.22-.5-.5s.22-.5,.5-.5H29c1.93,0,3.5-1.57,3.5-3.5v-6c0-1.93-1.57-3.5-3.5-3.5h-5.09c-.28,0-.5-.22-.5-.5s.22-.5,.5-.5h5.09c2.48,0,4.5,2.02,4.5,4.5v6c0,2.48-2.02,4.5-4.5,4.5Z"/>
  <path class="cls-1" d="M20.5,14.5H11c-.28,0-.5-.22-.5-.5s.22-.5,.5-.5h9.5c.28,0,.5,.22,.5,.5s-.22,.5-.5,.5Z"/>
  <path class="cls-1" d="M21,16.5c-.22,0-.43-.15-.48-.38l-1-4c-.06-.23,.05-.46,.26-.57l2-1c.23-.12,.52-.04,.65,.19l3,5c.14,.24,.07,.54-.17,.69-.23,.14-.54,.07-.69-.17l-2.76-4.6-1.23,.61,.9,3.61c.07,.27-.1,.54-.36,.61-.04,0-.08,.01-.12,.01Z"/>
  <path class="cls-1" d="M29,26.5h-10c-.28,0-.5-.22-.5-.5s.22-.5,.5-.5h10c.28,0,.5,.22,.5,.5s-.22,.5-.5,.5Z"/>
  <path class="cls-1" d="M29,20.5h-10c-.28,0-.5-.22-.5-.5s.22-.5,.5-.5h10c.28,0,.5,.22,.5,.5s-.22,.5-.5,.5Z"/>
  <path class="cls-1" d="M30,23.5h-6c-.28,0-.5-.22-.5-.5s.22-.5,.5-.5h6c.28,0,.5,.22,.5,.5s-.22,.5-.5,.5Z"/>
  <path class="cls-1" d="M30,18.5h-4c-.28,0-.5-.22-.5-.5s.22-.5,.5-.5h4c.28,0,.5,.22,.5,.5s-.22,.5-.5,.5Z"/>
</svg>