<?xml version="1.0" encoding="UTF-8"?>
<svg id="Layer_1" data-name="Layer 1" xmlns="http://www.w3.org/2000/svg" viewBox="0 0 40.71 24.26">
  <defs>
    <style>
      .cls-1 {
        fill: #414042;
      }
    </style>
  </defs>
  <path class="cls-1" d="M5.49,23.69c-2.7,0-4.9-2.2-4.9-4.9v-3.51c0-2.7,2.2-4.9,4.9-4.9s4.9,2.2,4.9,4.9v3.51c0,2.7-2.2,4.9-4.9,4.9Zm0-12.3c-2.14,0-3.88,1.74-3.88,3.88v3.51c0,2.14,1.74,3.88,3.88,3.88s3.88-1.74,3.88-3.88v-3.51c0-2.14-1.74-3.88-3.88-3.88Z"/>
  <path class="cls-1" d="M2.86,15.78c-.28,0-.51-.23-.51-.51,0-1.73,1.41-3.14,3.14-3.14,.28,0,.51,.23,.51,.51s-.23,.51-.51,.51c-1.17,0-2.13,.95-2.13,2.13,0,.28-.23,.51-.51,.51Z"/>
  <path class="cls-1" d="M5.49,21.93c-1.73,0-3.14-1.41-3.14-3.14,0-.28,.23-.51,.51-.51s.51,.23,.51,.51c0,1.17,.95,2.13,2.13,2.13s2.13-.95,2.13-2.13v-3.51c0-.28,.23-.51,.51-.51s.51,.23,.51,.51v3.51c0,1.73-1.41,3.14-3.14,3.14Z"/>
  <path class="cls-1" d="M5.49,20.17c-.76,0-1.39-.62-1.39-1.39v-3.51c0-.77,.62-1.39,1.39-1.39s1.39,.62,1.39,1.39v3.51c0,.77-.62,1.39-1.39,1.39Zm0-5.27c-.2,0-.37,.17-.37,.37v3.51c0,.2,.17,.37,.37,.37s.37-.17,.37-.37v-3.51c0-.2-.17-.37-.37-.37Z"/>
  <path class="cls-1" d="M13.84,11.39H5.49c-.28,0-.51-.23-.51-.51s.23-.51,.51-.51H13.84c.28,0,.51,.23,.51,.51s-.23,.51-.51,.51Z"/>
  <path class="cls-1" d="M14.28,13.15c-.23,0-.44-.15-.49-.39l-.88-3.51c-.06-.23,.05-.47,.27-.58l1.76-.88c.24-.12,.53-.04,.66,.19l2.64,4.39c.15,.24,.07,.55-.17,.7-.24,.15-.55,.07-.7-.17l-2.39-3.99-.97,.48,.78,3.12c.07,.27-.1,.55-.37,.62-.04,0-.08,.01-.12,.01Z"/>
  <path class="cls-1" d="M18.97,21.93h-7.28c-.28,0-.51-.23-.51-.51s.23-.51,.51-.51h7.28c.28,0,.51,.23,.51,.51s-.23,.51-.51,.51Z"/>
  <path class="cls-1" d="M29.39,.53c.82,.02,1.65-.02,2.47,.02,.46,.05,.6,.58,.67,.96,.08,.64-.02,1.4-.49,1.88-.84,.27-1.75,0-2.61,.13-.01,.05-.03,.15-.04,.2,1.73,.2,3.48-.08,5.21,.06,2.07,1.12,3.51,3.27,3.86,5.58,.34,2.02-.17,4.14-1.26,5.85-.21,.27-.48,.71-.89,.55-2.18-1-4.67-.55-6.92-.05,.02,.97,0,1.94,.04,2.9,.82-.17,1.49-.74,1.91-1.45,.21-.27,.33-.73,.73-.75,1.96-.29,3.92-.5,5.88-.8,.65-.07,1.3-.22,1.96-.22,.32,.15,.52,.54,.3,.86-1.01,2.12-1.83,4.42-3.53,6.11-.44,.42-.88,.84-1.37,1.21-.26,.09-.54,.08-.81,.08-4.42,0-8.83,0-13.25,.01-.3,0-.68,.04-.81-.29-.55-.89-1.49-1.42-2.11-2.24-.71-1.02-.66-2.32-.8-3.51-.02-.34-.14-.89,.31-1,.86-.07,1.73-.02,2.6,0-.28-.52,.08-.97,.35-1.39-.72,.11-1.41,.37-2.14,.46-.25-.1-.39-.37-.4-.63,.18-.36,.47-.65,.67-1.01,.75-1.43,.83-3.24,.02-4.66-.2-.38-.55-.67-.78-1.03-.06-.25,.07-.66,.4-.62,.85-.02,1.69,.02,2.54,0-.35-.48-.78-.89-1.19-1.32-.21-.16-.05-.45,.07-.62,.21-.1,.45-.06,.67-.07,1.47,.02,2.95,0,4.42,.01-.44-.49-.97-.9-1.47-1.33-.25-.17-.1-.63,.18-.66,1.54-.08,3.09,.04,4.62-.04,.04-.05,.13-.15,.17-.2-.81-.08-1.65,.09-2.45-.13-.32-.19-.09-.56-.05-.83,.2-.62-.29-1.12-.52-1.64-.11-.21,.14-.5,.36-.48,.83-.01,1.66,0,2.49,.04m-1.29,1.02c.05,.32,.09,.64,.13,.96,1.4,0,2.79-.01,4.19,0-.01-.27,.32-.85-.1-.88-1.4-.04-2.81,.02-4.21-.08m-1.51,3.31c1.02,1.11,1.62,2.55,1.94,4.01,.47,2.34-.08,4.79-1.17,6.88,.95-.37,1.92-.73,2.92-.97,2.28-.56,4.77-.86,7.03-.04,1.1-1.69,1.54-3.84,1.02-5.8-.42-1.69-1.55-3.17-3.03-4.07-.29-.08-.59-.04-.88-.05-2.61,0-5.22,.03-7.83,.04m-3.94,1.96c.67,1,1.14,2.13,1.29,3.33,.24,1.71-.14,3.44-.81,5.02,1.2-.37,2.43-.65,3.68-.76,1.1-2.36,1.21-5.24-.09-7.55-1.36-.03-2.71-.05-4.07-.04m-1.84,2.03c.98,1.65,.94,3.77,.15,5.48,.48-.07,.96-.14,1.45-.21,.69-1.67,.79-3.58,.17-5.29-.59,0-1.17,.02-1.76,.02m2.04,7.49c-.18,.03-.26,.22-.38,.34,.7,.12,1.45-.12,2.11,.18,.45,.54,.58,1.32,1.12,1.8,1.23,.18,2.49,.09,3.73,.11,0-.9,0-1.8-.03-2.69-1.22,.42-2.4,.94-3.59,1.44-.16-.14-.33-.26-.44-.45,.16-.59,.62-1.04,.9-1.57-1.17,.16-2.3,.5-3.42,.84m10.54,1.12c-.45,.71-.96,1.42-1.7,1.84-.79,.51-1.78,.47-2.68,.51-1.2-.02-2.42,.06-3.6-.17-.75-.36-1.11-1.2-1.5-1.89-1.45-.02-2.9-.04-4.35-.03,.12,1.06,.05,2.31,.87,3.12,.61,.58,1.24,1.14,1.71,1.84,4.59-.04,9.17-.03,13.76-.05,2.01-1.49,3.1-3.81,4.04-6.06-2.18,.33-4.36,.59-6.55,.89"/>
  <path class="cls-1" d="M14.54,3.81c.19-.16,.47-.07,.69-.1,2.16,.02,4.32-.01,6.48,.01,.34-.02,.62,.3,.53,.64-.06,.39-.52,.41-.82,.41-2.2-.02-4.41,0-6.61-.03-.47,.01-.65-.67-.26-.92"/>
  <path class="cls-1" d="M18.11,19.74h-3.78c-.28,0-.51-.23-.51-.51s.23-.51,.51-.51h3.78c.28,0,.51,.23,.51,.51s-.23,.51-.51,.51Z"/>
  <path class="cls-1" d="M16.91,15.31h-3.51c-.28,0-.51-.23-.51-.51s.23-.51,.51-.51h3.51c.28,0,.51,.23,.51,.51s-.23,.51-.51,.51Z"/>
  <path class="cls-1" d="M10.43,5.82c.19-.16,.47-.07,.69-.1,2.16,.02,4.32-.01,6.48,.01,.34-.02,.62,.3,.53,.64-.06,.39-.52,.41-.82,.41-2.2-.02-4.41,0-6.61-.03-.47,.01-.65-.67-.26-.92"/>
  <path class="cls-1" d="M18.64,17.6h-6.61c-.28,0-.51-.23-.51-.51s.23-.51,.51-.51h6.61c.28,0,.51,.23,.51,.51s-.23,.51-.51,.51Z"/>
  <path class="cls-1" d="M8.39,6.76h-1.28c-.28,0-.51-.23-.51-.51s.23-.51,.51-.51h1.28c.28,0,.51,.23,.51,.51s-.23,.51-.51,.51Z"/>
  <path class="cls-1" d="M4.88,6.76h-.26c-.28,0-.51-.23-.51-.51s.23-.51,.51-.51h.26c.28,0,.51,.23,.51,.51s-.23,.51-.51,.51Z"/>
  <g>
    <path class="cls-1" d="M16.83,11.39h3.25l-.16-1.02h-3.08c-.28,0-.51,.23-.51,.51s.23,.51,.51,.51Z"/>
    <path class="cls-1" d="M21.86,22.61c-.18,.03-.37,.06-.56,.06H5.49c-.28,0-.51,.23-.51,.51s.23,.51,.51,.51h15.81c.25,0,.49-.03,.72-.07l-.16-1Z"/>
  </g>
</svg>