<?xml version="1.0" encoding="UTF-8"?>
<svg id="Layer_1" data-name="Layer 1" xmlns="http://www.w3.org/2000/svg" viewBox="0 0 28 40">
  <defs>
    <style>
      .cls-1 {
        fill: #414042;
      }
    </style>
  </defs>
  <path class="cls-1" d="M25.54,17.7c-.66,0-1.31,.15-1.96,.22-1.96,.3-3.92,.51-5.88,.8-.4,.02-.52,.48-.73,.75-.41,.72-1.09,1.28-1.91,1.45-.04-.97-.01-1.94-.04-2.9,2.25-.51,4.74-.95,6.92,.05,.4,.16,.68-.29,.89-.55,1.09-1.72,1.6-3.84,1.26-5.85-.35-2.32-1.79-4.46-3.86-5.58-1.73-.14-3.48,.14-5.21-.06,.01-.05,.03-.15,.04-.2,.86-.14,1.78,.14,2.61-.13,.47-.48,.57-1.23,.49-1.88-.07-.38-.21-.91-.67-.96-.82-.05-1.65,0-2.47-.02l-1-.05c-.83-.03-1.66-.05-2.49-.04-.22-.02-.47,.27-.36,.48,.23,.52,.72,1.03,.52,1.64-.04,.27-.27,.64,.05,.83,.79,.22,1.63,.05,2.45,.13-.04,.05-.13,.15-.17,.2-1.54,.08-3.09-.04-4.62,.04-.28,.03-.44,.5-.18,.66,.5,.43,1.02,.84,1.47,1.33-1.47-.02-2.95,0-4.42-.01-.22,.01-.47-.03-.67,.07-.12,.16-.28,.46-.07,.62,.41,.43,.84,.84,1.19,1.32-.85,.03-1.7-.01-2.54,0-.32-.04-.46,.36-.4,.62,.24,.36,.58,.64,.78,1.03,.81,1.42,.73,3.24-.02,4.66-.19,.36-.48,.65-.67,1.01,.01,.26,.15,.53,.4,.63,.72-.09,1.42-.35,2.14-.46-.27,.42-.63,.87-.35,1.39-.87-.02-1.74-.06-2.6,0-.45,.11-.33,.66-.31,1,.14,1.18,.09,2.48,.8,3.51,.63,.82,1.56,1.35,2.11,2.24,.14,.33,.51,.3,.81,.29,1.72,0,4.58,0,6.87,0,.37,0,.73,0,1.07,0s.29-1.07-.06-1.07c-.32,0-.65,0-1.01,0-2.31,0-5.21,.01-6.97,.03-.47-.7-1.1-1.27-1.71-1.84-.82-.81-.75-2.06-.87-3.12,1.45,0,2.9,.01,4.35,.03,.39,.69,.75,1.53,1.5,1.89,1.18,.23,2.4,.16,3.6,.17,.9-.04,1.89,0,2.68-.51,.74-.43,1.25-1.14,1.7-1.84,2.18-.3,4.37-.56,6.55-.89-.94,2.25-2.03,4.56-4.04,6.06-1.59,0-1.2,0-2.79,.01v1.08c1.09,0,1.29,0,2.38,0,.27,0,.55,0,.81-.08,.49-.36,.93-.78,1.37-1.21,1.7-1.69,2.53-3.99,3.53-6.11,.22-.32,.03-.71-.3-.86ZM12.87,4.75c-.04-.32-.08-.64-.13-.96,1.4,.1,2.81,.04,4.21,.08,.42,.03,.09,.6,.1,.88-1.4-.01-2.79,0-4.19,0Zm-1.51,4.36c1.31,2.3,1.2,5.19,.09,7.55-1.25,.11-2.49,.39-3.68,.76,.67-1.57,1.06-3.31,.81-5.02-.16-1.19-.63-2.33-1.29-3.33,1.35,0,2.71,.01,4.07,.04Zm-5.76,7.47c.8-1.71,.83-3.83-.15-5.48,.59,0,1.17-.01,1.76-.02,.62,1.71,.53,3.62-.17,5.29-.48,.07-.97,.14-1.45,.21Zm4.74,4.33c-.54-.48-.67-1.26-1.12-1.8-.66-.3-1.41-.06-2.11-.18,.12-.12,.19-.31,.38-.34,1.12-.34,2.26-.68,3.42-.84-.28,.53-.74,.98-.9,1.57,.11,.18,.28,.31,.44,.45,1.19-.5,2.37-1.02,3.59-1.44,.02,.9,.02,1.8,.03,2.69-1.24-.02-2.5,.06-3.73-.11Zm1.66-2.91c1.09-2.09,1.64-4.54,1.17-6.88-.31-1.46-.92-2.9-1.94-4.01,2.61-.01,5.22-.04,7.83-.04,.29,0,.59-.03,.88,.05,1.48,.9,2.61,2.38,3.03,4.07,.52,1.97,.08,4.11-1.02,5.8-2.26-.81-4.75-.52-7.03,.04-1,.24-1.96,.6-2.92,.97Z"/>
  <path class="cls-1" d="M6.77,38.03c-2.65,0-4.81-2.16-4.81-4.81v-3.45c0-2.65,2.16-4.81,4.81-4.81s4.81,2.16,4.81,4.81v3.45c0,2.65-2.16,4.81-4.81,4.81Zm0-12.08c-2.1,0-3.81,1.71-3.81,3.81v3.45c0,2.1,1.71,3.81,3.81,3.81s3.81-1.71,3.81-3.81v-3.45c0-2.1-1.71-3.81-3.81-3.81Z"/>
  <path class="cls-1" d="M4.18,30.26c-.28,0-.5-.22-.5-.5,0-1.7,1.38-3.09,3.09-3.09,.28,0,.5,.22,.5,.5s-.22,.5-.5,.5c-1.15,0-2.09,.94-2.09,2.09,0,.28-.22,.5-.5,.5Z"/>
  <path class="cls-1" d="M6.77,36.3c-1.7,0-3.09-1.38-3.09-3.09,0-.28,.22-.5,.5-.5s.5,.22,.5,.5c0,1.15,.94,2.09,2.09,2.09s2.09-.94,2.09-2.09v-3.45c0-.28,.22-.5,.5-.5s.5,.22,.5,.5v3.45c0,1.7-1.38,3.09-3.09,3.09Z"/>
  <path class="cls-1" d="M6.77,34.58c-.75,0-1.36-.61-1.36-1.36v-3.45c0-.75,.61-1.36,1.36-1.36s1.36,.61,1.36,1.36v3.45c0,.75-.61,1.36-1.36,1.36Zm0-5.18c-.2,0-.36,.16-.36,.36v3.45c0,.2,.16,.36,.36,.36s.36-.16,.36-.36v-3.45c0-.2-.16-.36-.36-.36Z"/>
  <path class="cls-1" d="M22.3,38.03H6.77c-.28,0-.5-.22-.5-.5s.22-.5,.5-.5h15.53c1.63,0,2.95-1.32,2.95-2.95v-5.18c0-1.63-1.32-2.95-2.95-2.95h-4.39c-.28,0-.5-.22-.5-.5s.22-.5,.5-.5h4.39c2.18,0,3.95,1.77,3.95,3.95v5.18c0,2.18-1.77,3.95-3.95,3.95Z"/>
  <path class="cls-1" d="M14.97,25.95H6.77c-.28,0-.5-.22-.5-.5s.22-.5,.5-.5H14.97c.28,0,.5,.22,.5,.5s-.22,.5-.5,.5Z"/>
  <path class="cls-1" d="M15.4,27.67c-.22,0-.43-.15-.49-.38l-.86-3.45c-.06-.23,.05-.46,.26-.57l1.72-.86c.23-.12,.52-.04,.65,.19l2.59,4.31c.14,.24,.07,.54-.17,.69-.23,.14-.54,.07-.69-.17l-2.35-3.92-.95,.48,.77,3.06c.07,.27-.1,.54-.36,.61-.04,0-.08,.01-.12,.01Z"/>
  <path class="cls-1" d="M22.3,36.3H13.67c-.28,0-.5-.22-.5-.5s.22-.5,.5-.5h8.63c.28,0,.5,.22,.5,.5s-.22,.5-.5,.5Z"/>
  <path class="cls-1" d="M22.3,31.12H13.67c-.28,0-.5-.22-.5-.5s.22-.5,.5-.5h8.63c.28,0,.5,.22,.5,.5s-.22,.5-.5,.5Z"/>
  <path class="cls-1" d="M23.16,33.71h-5.18c-.28,0-.5-.22-.5-.5s.22-.5,.5-.5h5.18c.28,0,.5,.22,.5,.5s-.22,.5-.5,.5Z"/>
  <path class="cls-1" d="M23.16,29.4h-3.45c-.28,0-.5-.22-.5-.5s.22-.5,.5-.5h3.45c.28,0,.5,.22,.5,.5s-.22,.5-.5,.5Z"/>
</svg>