<?xml version="1.0" encoding="UTF-8"?>
<svg id="Layer_1" data-name="Layer 1" xmlns="http://www.w3.org/2000/svg" viewBox="0 0 48.87 24.26">
  <defs>
    <style>
      .cls-1 {
        fill: #414042;
      }
    </style>
  </defs>
  <path class="cls-1" d="M6.58,23.69c-3.2,0-5.81-2.61-5.81-5.81v-4.17c0-3.2,2.61-5.81,5.81-5.81s5.81,2.61,5.81,5.81v4.17c0,3.2-2.61,5.81-5.81,5.81Zm0-14.58c-2.54,0-4.6,2.07-4.6,4.6v4.17c0,2.54,2.07,4.6,4.6,4.6s4.6-2.07,4.6-4.6v-4.17c0-2.54-2.07-4.6-4.6-4.6Z"/>
  <path class="cls-1" d="M3.46,14.31c-.33,0-.6-.27-.6-.6,0-2.06,1.67-3.73,3.73-3.73,.33,0,.6,.27,.6,.6s-.27,.6-.6,.6c-1.39,0-2.52,1.13-2.52,2.52,0,.33-.27,.6-.6,.6Z"/>
  <path class="cls-1" d="M6.58,21.6c-2.06,0-3.73-1.67-3.73-3.73,0-.33,.27-.6,.6-.6s.6,.27,.6,.6c0,1.39,1.13,2.52,2.52,2.52s2.52-1.13,2.52-2.52v-4.17c0-.33,.27-.6,.6-.6s.6,.27,.6,.6v4.17c0,2.06-1.67,3.73-3.73,3.73Z"/>
  <path class="cls-1" d="M6.58,19.52c-.91,0-1.64-.74-1.64-1.65v-4.17c0-.91,.74-1.65,1.64-1.65s1.65,.74,1.65,1.65v4.17c0,.91-.74,1.65-1.65,1.65Zm0-6.25c-.24,0-.44,.2-.44,.44v4.17c0,.24,.2,.44,.44,.44s.44-.2,.44-.44v-4.17c0-.24-.2-.44-.44-.44Z"/>
  <path class="cls-1" d="M16.48,9.11H6.58c-.33,0-.6-.27-.6-.6s.27-.6,.6-.6h9.89c.33,0,.6,.27,.6,.6s-.27,.6-.6,.6Z"/>
  <path class="cls-1" d="M17,11.19c-.27,0-.52-.18-.59-.46l-1.04-4.17c-.07-.27,.06-.56,.32-.69l2.08-1.04c.28-.14,.63-.04,.79,.23l3.13,5.21c.17,.29,.08,.66-.21,.83-.28,.17-.66,.08-.83-.21l-2.84-4.73-1.15,.57,.92,3.7c.08,.32-.12,.65-.44,.73-.05,.01-.1,.02-.15,.02Z"/>
  <path class="cls-1" d="M37.55,.53c.82,.02,1.65-.02,2.47,.02,.46,.05,.6,.58,.67,.96,.08,.64-.02,1.4-.49,1.88-.84,.27-1.75,0-2.61,.13-.01,.05-.03,.15-.04,.2,1.73,.2,3.48-.08,5.21,.06,2.07,1.12,3.51,3.27,3.86,5.58,.34,2.02-.17,4.14-1.26,5.85-.21,.27-.48,.71-.89,.55-2.18-1-4.67-.55-6.92-.05,.02,.97,0,1.94,.04,2.9,.82-.17,1.49-.74,1.91-1.45,.21-.27,.33-.73,.73-.75,1.96-.29,3.92-.5,5.88-.8,.65-.07,1.3-.22,1.96-.22,.32,.15,.52,.54,.3,.86-1.01,2.12-1.83,4.42-3.53,6.11-.44,.42-.88,.84-1.37,1.21-.26,.09-.54,.08-.81,.08-4.42,0-8.83,0-13.25,.01-.3,0-.68,.04-.81-.29-.55-.89-1.49-1.42-2.11-2.24-.71-1.02-.66-2.32-.8-3.51-.02-.34-.14-.89,.31-1,.86-.07,1.73-.02,2.6,0-.28-.52,.08-.97,.35-1.39-.72,.11-1.41,.37-2.14,.46-.25-.1-.39-.37-.4-.63,.18-.36,.47-.65,.67-1.01,.75-1.43,.83-3.24,.02-4.66-.2-.38-.55-.67-.78-1.03-.06-.25,.07-.66,.4-.62,.85-.02,1.69,.02,2.54,0-.35-.48-.78-.89-1.19-1.32-.21-.16-.05-.45,.07-.62,.21-.1,.45-.06,.67-.07,1.47,.02,2.95,0,4.42,.01-.44-.49-.97-.9-1.47-1.33-.25-.17-.1-.63,.18-.66,1.54-.08,3.09,.04,4.62-.04,.04-.05,.13-.15,.17-.2-.81-.08-1.65,.09-2.45-.13-.32-.19-.09-.56-.05-.83,.2-.62-.29-1.12-.52-1.64-.11-.21,.14-.5,.36-.48,.83-.01,1.66,0,2.49,.04m-1.29,1.02c.05,.32,.09,.64,.13,.96,1.4,0,2.79-.01,4.19,0-.01-.27,.32-.85-.1-.88-1.4-.04-2.81,.02-4.21-.08m-1.51,3.31c1.02,1.11,1.62,2.55,1.94,4.01,.47,2.34-.08,4.79-1.17,6.88,.95-.37,1.92-.73,2.92-.97,2.28-.56,4.77-.86,7.03-.04,1.1-1.69,1.54-3.84,1.02-5.8-.42-1.69-1.55-3.17-3.03-4.07-.29-.08-.59-.04-.88-.05-2.61,0-5.22,.03-7.83,.04m-3.94,1.96c.67,1,1.14,2.13,1.29,3.33,.24,1.71-.14,3.44-.81,5.02,1.2-.37,2.43-.65,3.68-.76,1.1-2.36,1.21-5.24-.09-7.55-1.36-.03-2.71-.05-4.07-.04m-1.84,2.03c.98,1.65,.94,3.77,.15,5.48,.48-.07,.96-.14,1.45-.21,.69-1.67,.79-3.58,.17-5.29-.59,0-1.17,.02-1.76,.02m2.04,7.49c-.18,.03-.26,.22-.38,.34,.7,.12,1.45-.12,2.11,.18,.45,.54,.58,1.32,1.12,1.8,1.23,.18,2.49,.09,3.73,.11,0-.9,0-1.8-.03-2.69-1.22,.42-2.4,.94-3.59,1.44-.16-.14-.33-.26-.44-.45,.16-.59,.62-1.04,.9-1.57-1.17,.16-2.3,.5-3.42,.84m10.54,1.12c-.45,.71-.96,1.42-1.7,1.84-.79,.51-1.78,.47-2.68,.51-1.2-.02-2.42,.06-3.6-.17-.75-.36-1.11-1.2-1.5-1.89-1.45-.02-2.9-.04-4.35-.03,.12,1.06,.05,2.31,.87,3.12,.61,.58,1.24,1.14,1.71,1.84,4.59-.04,9.17-.03,13.76-.05,2.01-1.49,3.1-3.81,4.04-6.06-2.18,.33-4.36,.59-6.55,.89"/>
  <path class="cls-1" d="M22.71,3.81c.19-.16,.47-.07,.69-.1,2.16,.02,4.32-.01,6.48,.01,.34-.02,.62,.3,.53,.64-.06,.39-.52,.41-.82,.41-2.2-.02-4.41,0-6.61-.03-.47,.01-.65-.67-.26-.92"/>
  <path class="cls-1" d="M20.27,5.82c.19-.16,.47-.07,.69-.1,2.16,.02,2.79-.01,4.95,.01,.34-.02,.62,.3,.53,.64-.06,.39-.52,.41-.82,.41-2.2-.02-2.88,0-5.08-.03-.47,.01-.65-.67-.26-.92"/>
  <path class="cls-1" d="M13.82,6.76h-1.28c-.28,0-.51-.23-.51-.51s.23-.51,.51-.51h1.28c.28,0,.51,.23,.51,.51s-.23,.51-.51,.51Z"/>
  <path class="cls-1" d="M9.91,6.76h-.26c-.28,0-.51-.23-.51-.51s.23-.51,.51-.51h.26c.28,0,.51,.23,.51,.51s-.23,.51-.51,.51Z"/>
  <g>
    <path class="cls-1" d="M20.03,9.11h5.07l-.72-1.21h-4.35c-.33,0-.6,.27-.6,.6s.27,.6,.6,.6Z"/>
    <path class="cls-1" d="M25.73,22.48H6.58c-.33,0-.6,.27-.6,.6s.27,.6,.6,.6H26.8c.29,0-.84-1.21-1.07-1.21Z"/>
  </g>
  <path class="cls-1" d="M23.45,21.12H14.28c-.31,0-.56-.25-.56-.56s.25-.56,.56-.56h9.17c.31,0,.56,.25,.56,.56s-.25,.56-.56,.56Z"/>
  <path class="cls-1" d="M23.45,15.41H14.28c-.31,0-.56-.25-.56-.56s.25-.56,.56-.56h9.17c.31,0,.56,.25,.56,.56s-.25,.56-.56,.56Z"/>
  <path class="cls-1" d="M24.57,18.33h-6.7c-.31,0-.56-.25-.56-.56s.25-.56,.56-.56h6.7c.31,0,.56,.25,.56,.56s-.25,.56-.56,.56Z"/>
  <path class="cls-1" d="M24.57,13.18h-4.47c-.31,0-.56-.25-.56-.56s.25-.56,.56-.56h4.47c.31,0,.56,.25,.56,.56s-.25,.56-.56,.56Z"/>
</svg>